<svg width="800" height="800" viewBox="0 0 800 800" fill="none" xmlns="http://www.w3.org/2000/svg">
<g clip-path="url(#clip0_6_13)">
<path d="M150 250C163.261 250 175.979 255.268 185.355 264.645C194.732 274.021 200 286.739 200 300V650C200 663.261 194.732 675.978 185.355 685.355C175.979 694.732 163.261 700 150 700H50C22.4333 700 0 677.6 0 650V300C0 272.4 22.4333 250 50 250H150ZM450 100C463.261 100 475.979 105.268 485.355 114.645C494.732 124.021 500 136.739 500 150V650C500 663.261 494.732 675.978 485.355 685.355C475.979 694.732 463.261 700 450 700H350C322.433 700 300 677.6 300 650V150C300 122.4 322.433 100 350 100H450ZM750 350C763.261 350 775.978 355.268 785.355 364.645C794.732 374.021 800 386.739 800 400V650C800 663.261 794.732 675.978 785.355 685.355C775.978 694.732 763.261 700 750 700H650C636.739 700 624.021 694.732 614.645 685.355C605.268 675.978 600 663.261 600 650V400C600 386.739 605.268 374.021 614.645 364.645C624.021 355.268 636.739 350 650 350H750Z" fill="white"/>
</g>
<defs>
<clipPath id="clip0_6_13">
<rect width="800" height="800" fill="white"/>
</clipPath>
</defs>
</svg>
