<svg width="800" height="800" viewBox="0 0 800 800" fill="none" xmlns="http://www.w3.org/2000/svg">
<g clip-path="url(#clip0_6_2)">
<path d="M400 31.6667C313.567 30.4223 229.571 60.32 163.363 115.896C97.1542 171.473 53.1539 249.017 39.4022 334.359C25.6505 419.7 43.0656 507.141 88.4652 580.701C133.865 654.262 204.217 709.031 286.667 735C303.333 738.333 316.667 720 316.667 705V656.667C216.667 678.333 185 608.333 185 608.333C178.498 587.235 165.705 568.626 148.333 555C115 531.667 150 533.333 150 533.333C161.131 534.221 171.9 537.697 181.449 543.484C190.998 549.271 199.063 557.21 205 566.667C233.333 615 296.667 610 316.667 601.667C314.916 585.095 317.801 568.362 325 553.333C211.667 533.333 150 466.667 150 376.667C148.808 329.728 166.175 284.213 198.333 250C189.375 233.45 185.106 214.769 185.987 195.971C186.868 177.173 192.866 158.972 203.333 143.333C223.462 143.729 243.3 148.219 261.638 156.528C279.976 164.838 296.431 176.793 310 191.667C338.941 181.791 369.439 177.273 400 178.333C430.431 177.39 460.816 181.329 490 190C503.772 175.505 520.303 163.909 538.621 155.895C556.939 147.881 576.674 143.61 596.667 143.333C606.905 159.019 612.901 177.092 614.069 195.787C615.238 214.482 611.539 233.161 603.333 250C634.885 284.476 651.643 329.961 650 376.667C650 466.667 588.333 533.333 475 553.333C482.199 568.362 485.084 585.095 483.333 601.667V705C483.327 709.084 484.155 713.126 485.765 716.879C487.376 720.632 489.736 724.016 492.701 726.825C495.666 729.634 499.173 731.807 503.007 733.213C506.841 734.619 510.922 735.227 515 735C595.486 707.074 663.53 651.633 707.139 578.447C750.747 505.262 767.121 419.032 753.374 334.956C739.627 250.88 696.642 174.355 631.994 118.87C567.347 63.3859 485.189 32.5035 400 31.6667Z" fill="white"/>
</g>
<defs>
<clipPath id="clip0_6_2">
<rect width="800" height="800" fill="white"/>
</clipPath>
</defs>
</svg>
