<svg width="800" height="601" viewBox="0 0 800 601" fill="none" xmlns="http://www.w3.org/2000/svg">
<g clip-path="url(#clip0_6_25)">
<rect y="15.113" width="800" height="585.516" rx="130" fill="#D9D9D9"/>
<path fill-rule="evenodd" clip-rule="evenodd" d="M750 500.629C750 505.704 749.025 510.504 747.625 515.079L525 275.629L750 100.629V500.629ZM88.9 549.28L314.5 308.879L400 373.505L481.8 308.479L711.1 549.28C707.525 550.105 92.475 550.105 88.9 549.28ZM50 500.629V100.629L275 275.629L52.375 515.079C50.975 510.504 50 505.704 50 500.629ZM725 50.6294L400 300.629L75 50.6294H725ZM700 0.629395H100C44.775 0.629395 0 45.4044 0 100.629V500.629C0 555.854 44.775 600.629 100 600.629H700C755.225 600.629 800 555.854 800 500.629V100.629C800 45.4044 755.225 0.629395 700 0.629395Z" fill="black"/>
</g>
<defs>
<clipPath id="clip0_6_25">
<rect width="800" height="600" fill="white" transform="translate(0 0.629395)"/>
</clipPath>
</defs>
</svg>
